<svg width="19" height="24" viewBox="0 0 19 24" fill="none" xmlns="http://www.w3.org/2000/svg">
<path fill-rule="evenodd" clip-rule="evenodd" d="M9.49999 0.591309C12.4529 0.591309 14.8495 2.98816 14.8495 5.93829L15.9171 5.94082C17.1002 5.94082 18.119 6.89786 18.1925 8.07426L18.9958 20.9258C19.0694 22.1041 18.1741 23.0592 16.9946 23.0592H2.00543C0.82655 23.0592 -0.0693046 22.1022 0.00422077 20.9258L0.807441 8.07426C0.881083 6.89599 1.89782 5.94082 3.08286 5.94082H4.15049C4.15049 2.98656 6.54902 0.591309 9.49999 0.591309ZM12.7113 5.94033C12.7113 4.1694 11.2727 2.73063 9.50159 2.73063C7.73174 2.73063 6.29188 4.16852 6.29188 5.93781L12.7113 5.94033ZM4.15103 8.08024H3.08341C3.02838 8.08024 2.94679 8.15679 2.94362 8.20736L2.15712 20.919L16.8518 20.9163L16.0575 8.20736C16.0544 8.15872 15.9708 8.08024 15.9177 8.08024H14.85V10.22C14.85 10.8109 14.371 11.2899 13.7801 11.2899C13.1893 11.2899 12.7102 10.8109 12.7102 10.22V8.08024H6.29084V10.22C6.29084 10.8109 5.81183 11.2899 5.22093 11.2899C4.63004 11.2899 4.15103 10.8109 4.15103 10.22V8.08024ZM4.1505 17.7097C4.1505 17.1188 4.631 16.6398 5.21548 16.6398H13.7845C14.3727 16.6398 14.8495 17.1147 14.8495 17.7097C14.8495 18.3006 14.369 18.7796 13.7845 18.7796H5.21548C4.62731 18.7796 4.1505 18.3047 4.1505 17.7097Z" fill="black"/>
</svg>
