<svg width="29" height="30" viewBox=" 0 29 30" fill="none" xmlns="http://www.w3.org/2000/svg">
<path d="M21.4515 7.92893C19.5761 6.05357 17.0326 5 14.3804 5C11.7283 5 9.18471 6.05357 7.30935 7.92893C5.43399 9.8043 4.38042 12.3478 4.38042 15C4.38042 17.6522 5.43398 20.1957 7.30935 22.0711L14.3804 15L21.4515 7.92893Z" fill="#6C6761"/>
<path d="M7.31023 22.0711C9.1856 23.9464 11.7291 25 14.3813 25C17.0335 25 19.577 23.9464 21.4524 22.0711C23.3277 20.1957 24.3813 17.6522 24.3813 15C24.3813 12.3478 23.3277 9.8043 21.4524 7.92893L14.3813 15L7.31023 22.0711Z" fill="#DADADA"/>
</svg>
