<svg width="29" height="30" viewBox="0 0 29 30" fill="none" xmlns="http://www.w3.org/2000/svg">
<path d="M21.3089 7.92893C19.4335 6.05357 16.89 5 14.2378 5C11.5857 5 9.04214 6.05357 7.16677 7.92893C5.29141 9.8043 4.23784 12.3478 4.23784 15C4.23784 17.6522 5.29141 20.1957 7.16677 22.0711L14.2378 15L21.3089 7.92893Z" fill="#362820"/>
<path d="M7.16766 22.0711C9.04302 23.9464 11.5866 25 14.2387 25C16.8909 25 19.4344 23.9464 21.3098 22.0711C23.1852 20.1957 24.2387 17.6522 24.2387 15C24.2387 12.3478 23.1852 9.8043 21.3098 7.92893L14.2387 15L7.16766 22.0711Z" fill="#D2C8BC"/>
</svg>
