<svg width="28" height="28" viewBox="0 0 28 28" fill="none" xmlns="http://www.w3.org/2000/svg">
<path fill-rule="evenodd" clip-rule="evenodd" d="M18.6673 3.50049C16.8745 3.50049 15.2391 4.17448 14.0007 5.28291C12.7622 4.17448 11.1268 3.50049 9.33398 3.50049C5.46799 3.50049 2.33398 6.63449 2.33398 10.5005C2.33398 16.1431 8.14232 21.5967 13.5087 24.7785C13.7804 24.9471 14.2251 24.9449 14.496 24.7762C19.827 21.5838 25.6673 16.1428 25.6673 10.5005C25.6673 6.63449 22.5333 3.50049 18.6673 3.50049ZM14.0066 22.3227C8.23745 18.5511 4.66667 14.1454 4.66667 10.5005C4.66667 7.92316 6.756 5.83382 9.33333 5.83382C10.4995 5.83382 11.5931 6.2601 12.4439 7.02155L13.5665 8.02636C13.8092 8.24355 14.1941 8.24063 14.4335 8.02636L15.5561 7.02155C16.4069 6.2601 17.5005 5.83382 18.6667 5.83382C21.244 5.83382 23.3333 7.92316 23.3333 10.5005C23.3333 14.2391 19.7758 18.5511 14.0066 22.3227Z" fill="black"/>
</svg>
