<svg width="28" height="28" viewBox="0 0 28 28" fill="none" xmlns="http://www.w3.org/2000/svg">
<path fill-rule="evenodd" clip-rule="evenodd" d="M24.9569 23.307C25.4105 23.7606 25.4121 24.4945 24.9533 24.9533C24.4977 25.4089 23.7614 25.4113 23.307 24.9569L16.9733 18.6232C15.5012 19.7479 13.6616 20.416 11.666 20.416C6.83352 20.416 2.91602 16.4985 2.91602 11.666C2.91602 6.83352 6.83352 2.91602 11.666 2.91602C16.4985 2.91602 20.416 6.83352 20.416 11.666C20.416 13.6616 19.7479 15.5012 18.6232 16.9733L24.9569 23.307ZM11.6661 18.0827C15.2099 18.0827 18.0827 15.2098 18.0827 11.666C18.0827 8.12219 15.2099 5.24935 11.6661 5.24935C8.12223 5.24935 5.24939 8.12219 5.24939 11.666C5.24939 15.2098 8.12223 18.0827 11.6661 18.0827Z" fill="black"/>
</svg>
