<svg width="19" height="22" viewBox="0 0 19 22" fill="none" xmlns="http://www.w3.org/2000/svg">
<path fill-rule="evenodd" clip-rule="evenodd" d="M15.2877 21.4033C16.4995 21.4033 17.4865 20.4182 17.4865 19.2031V4.89915C18.0981 4.89863 18.5868 4.40622 18.5868 3.79887C18.5868 3.18697 18.0938 2.6986 17.4856 2.6986H11.9852C11.9852 1.48327 10.9999 0.498047 9.78462 0.498047C8.56929 0.498047 7.58407 1.48327 7.58407 2.6986H2.08366C1.47164 2.6986 0.982422 3.19121 0.982422 3.79887C0.982422 4.41045 1.47494 4.89863 2.0827 4.89915V19.2031C2.0827 20.4203 3.06714 21.4033 4.28151 21.4033H15.2877ZM15.2878 19.2037C15.2878 19.2037 4.28329 19.2052 4.28329 19.2041V4.90011H15.286C15.2859 8.42427 15.2856 19.2037 15.2878 19.2037ZM10.885 8.19694C10.885 7.59077 11.3733 7.09937 11.9852 7.09937C12.5929 7.09937 13.0855 7.59043 13.0855 8.19694V15.9043C13.0855 16.5104 12.5971 17.0018 11.9852 17.0018C11.3776 17.0018 10.885 16.5108 10.885 15.9043V8.19694ZM7.58413 7.09937C6.97222 7.09937 6.48385 7.59077 6.48385 8.19694V15.9043C6.48385 16.5108 6.97646 17.0018 7.58413 17.0018C8.19603 17.0018 8.6844 16.5104 8.6844 15.9043V8.19694C8.6844 7.59043 8.19179 7.09937 7.58413 7.09937Z" fill="#E0E0E0"/>
</svg>
